<?xml version="1.0" encoding="UTF-8"?>
<svg version="1.1" xmlns="http://www.w3.org/2000/svg" width="2000" height="1176">
<path d="M0 0 C2.42291018 -0.0018699 4.84582005 -0.00417132 7.26872945 -0.00686532 C12.52299994 -0.0116958 17.77726198 -0.01344055 23.03153419 -0.01240921 C30.84567339 -0.01087919 38.65980247 -0.01505735 46.47393969 -0.02028384 C61.2470283 -0.02993913 76.02011342 -0.03276743 90.79320481 -0.03334089 C102.2085854 -0.03380111 113.62396464 -0.03586297 125.03934479 -0.03904152 C128.32989796 -0.03993913 131.62045113 -0.04082894 134.9110043 -0.0417164 C136.1382226 -0.04204797 136.1382226 -0.04204797 137.39023317 -0.04238624 C160.39508752 -0.04853813 183.3999414 -0.05248705 206.4047966 -0.05204296 C207.27161262 -0.05202738 208.13842865 -0.0520118 209.03151182 -0.05199575 C213.42447954 -0.05191265 217.81744726 -0.05181361 222.21041498 -0.05171105 C223.51900164 -0.05168113 223.51900164 -0.05168113 224.85402441 -0.05165061 C226.6182131 -0.05161017 228.38240179 -0.05156837 230.14659047 -0.05152521 C257.57252477 -0.05091295 284.99844669 -0.05841098 312.42437744 -0.07209778 C343.269684 -0.08748482 374.11498242 -0.09606238 404.96029305 -0.09513456 C408.25461849 -0.09505993 411.54894392 -0.09501122 414.84326935 -0.09498024 C415.6543549 -0.09496859 416.46544045 -0.09495693 417.30110436 -0.09494492 C430.31033155 -0.09491425 443.31954793 -0.10127935 456.32877192 -0.1099125 C469.42396803 -0.11842242 482.51914846 -0.11935299 495.61434582 -0.11280318 C503.37653357 -0.10912932 511.13867343 -0.11087447 518.90085602 -0.12074552 C524.72292941 -0.12751847 530.54495932 -0.12363348 536.3670297 -0.1158723 C538.70287157 -0.11434849 541.03871876 -0.11611055 543.37455437 -0.12173238 C590.36889763 -0.22723005 641.2743481 5.14296407 678.24420166 37.13371277 C679.05115479 37.79629089 679.85810791 38.45886902 680.68951416 39.14152527 C709.64481215 63.73991322 721.64256258 102.39500374 724.77545166 139.08293152 C725.32877615 146.53585195 725.48756721 153.97469214 725.49420166 161.44621277 C725.49521378 162.48594238 725.49521378 162.48594238 725.49624634 163.54667664 C725.42984304 206.92106409 713.45387931 247.24004971 683.24420166 279.13371277 C682.43982666 279.99093933 681.63545166 280.84816589 680.80670166 281.73136902 C675.38855739 287.34422784 669.85737882 291.99929443 663.24420166 296.13371277 C662.22970947 296.76922058 661.21521729 297.40472839 660.16998291 298.05949402 C619.70188731 322.26514934 573.51883282 323.28192921 527.74537361 323.29034424 C523.68616506 323.29221166 519.62696667 323.29983285 515.56776428 323.30682373 C508.55691598 323.31826261 501.54606998 323.32655123 494.53521538 323.33294296 C483.44479194 323.34334581 472.35439764 323.36392453 461.26399231 323.38606262 C457.45776662 323.39353891 453.65154082 323.40095301 449.84531498 323.40834999 C448.41924307 323.41112584 448.41924307 323.41112584 446.96436162 323.41395777 C436.18256305 323.4348153 425.40076134 323.45368085 414.61895752 323.47160339 C413.1431944 323.47406067 413.1431944 323.47406067 411.63761789 323.47656758 C395.6618113 323.50290533 379.68600243 323.52152704 363.71018326 323.5381953 C347.26549295 323.55562881 330.8208478 323.58447723 314.37619358 323.62308466 C304.25374647 323.64642775 294.13137293 323.66047408 284.00889868 323.6624123 C277.07780729 323.66452513 270.14678922 323.67748309 263.21573078 323.69889162 C259.22225489 323.71088681 255.22892458 323.71809433 251.23543167 323.71217918 C247.57353958 323.70685228 243.91194355 323.71546513 240.25010074 323.73473556 C238.31244049 323.74141603 236.37474649 323.73352748 234.43709368 323.72495782 C218.84353847 323.84233268 205.88093491 327.90028979 194.49810791 338.76652527 C181.89497648 352.00308965 178.95712349 370.76231133 178.925354 388.38615417 C178.91530838 389.67508575 178.90526276 390.96401733 178.89491272 392.29200745 C178.86782389 395.79542343 178.85252671 399.2987997 178.83948469 402.80229235 C178.82376076 406.47517944 178.79700053 410.1479865 178.77145386 413.82081604 C178.72482894 420.76198227 178.68800649 427.70316383 178.65478098 434.64440572 C178.61644388 442.55263843 178.56706442 450.46079043 178.51679683 458.3689549 C178.41371948 474.62381606 178.3243811 490.87872218 178.24420166 507.13371277 C179.49322266 506.73638947 180.74224365 506.33906616 182.02911377 505.92970276 C190.59616381 503.21031746 199.15990997 500.50462293 207.80670166 498.04777527 C209.66593257 497.51337388 211.52505887 496.97860846 213.38409424 496.44352722 C214.8120079 496.03343918 214.8120079 496.03343918 216.26876831 495.61506653 C234.26439287 490.43578038 252.19284242 485.0630887 270.05670166 479.44621277 C271.09112396 479.12106689 272.12554626 478.79592102 273.1913147 478.46092224 C285.99041058 474.43092011 298.76457236 470.32583906 311.52545166 466.17668152 C393.36885513 439.5714068 491.02027937 412.45241293 590.68170166 451.07121277 C621.67599371 466.88073981 643.43875262 492.1446351 654.55670166 524.88371277 C669.62228974 571.38099819 669.80547275 630.46369295 647.59063721 674.80290222 C629.8501731 708.73546135 600.19590747 730.53592162 564.18170166 742.32121277 C556.81978282 744.60607853 549.35307254 746.32733541 541.80670166 747.88371277 C540.8559375 748.08247009 539.90517334 748.28122742 538.92559814 748.48600769 C521.05000312 751.96392973 503.0906474 752.50928626 484.93170166 752.44621277 C483.83781128 752.44438995 482.7439209 752.44256714 481.61688232 752.44068909 C423.53048673 752.278345 368.54144124 738.54669971 313.50799561 721.09040833 C274.00642217 708.56497695 234.2711741 696.85601044 194.36505127 685.68986511 C193.29193695 685.38910065 192.21882263 685.08833618 191.1131897 684.77845764 C189.1081423 684.21703008 187.10257383 683.65745899 185.09640503 683.10005188 C183.77749771 682.73096207 183.77749771 682.73096207 182.4319458 682.35441589 C181.28418419 682.03494995 181.28418419 682.03494995 180.11323547 681.70903015 C178.24420166 681.13371277 178.24420166 681.13371277 176.24420166 680.13371277 C176.24517318 680.8491755 176.2461447 681.56463823 176.24714565 682.30178165 C176.31728719 736.93982726 176.13065398 791.57536646 175.85536134 846.21267188 C175.81693069 853.89085102 175.78122844 861.56903971 175.74688721 869.24723816 C175.62098661 897.28779867 175.46984605 925.32803761 175.26428699 953.36813641 C175.24457858 956.08181366 175.22555554 958.79549495 175.20668793 961.50917816 C175.13840134 971.19884535 175.05409922 980.88813228 174.94328117 990.57740974 C174.91153711 993.38356962 174.8856624 996.18967082 174.8657856 998.99593925 C174.51378247 1043.9890296 166.99230487 1087.8150188 137.24420166 1123.13371277 C136.61771729 1123.89554871 135.99123291 1124.65738464 135.34576416 1125.44230652 C130.2361219 1131.45917097 124.48790135 1136.32623601 118.24420166 1141.13371277 C117.39084229 1141.80273621 116.53748291 1142.47175964 115.65826416 1143.16105652 C92.38575791 1160.80762657 64.12611459 1170.12299215 35.24420166 1173.13371277 C34.1910376 1173.24457214 33.13787354 1173.35543152 32.05279541 1173.46965027 C-11.55573827 1177.2796048 -60.32077632 1171.13506939 -96.75579834 1145.13371277 C-97.73032959 1144.45437683 -98.70486084 1143.77504089 -99.70892334 1143.07511902 C-113.87045754 1132.73301338 -126.64263017 1120.16670534 -135.75579834 1105.13371277 C-136.42611084 1104.08570496 -137.09642334 1103.03769714 -137.78704834 1101.95793152 C-154.8754218 1073.9921511 -160.93873036 1039.62397112 -160.88951111 1007.27215576 C-160.89290944 1005.59287039 -160.89290944 1005.59287039 -160.89637643 1003.87966007 C-160.90265381 1000.16688884 -160.90189108 996.4541547 -160.90106201 992.74137878 C-160.90405775 990.06223416 -160.90743372 987.38309233 -160.91123962 984.70394897 C-160.91950922 978.19918356 -160.92229295 971.69442721 -160.922852 965.18965698 C-160.92332973 959.88422821 -160.92539723 954.57880239 -160.92855263 949.27337456 C-160.93735574 934.15884127 -160.94197353 919.04431505 -160.94122215 903.92977918 C-160.9411822 903.11672814 -160.94114224 902.30367711 -160.94110107 901.46598816 C-160.94106019 900.65191657 -160.94101931 899.83784498 -160.94097719 898.99910455 C-160.94057271 885.87267526 -160.95009289 872.74627493 -160.96423944 859.61985398 C-160.97872364 846.07040821 -160.98550282 832.52097643 -160.98464566 818.97152275 C-160.98431739 811.39386034 -160.9869527 803.81622843 -160.99782372 796.23857307 C-161.04029988 765.16143626 -161.04296013 734.14548273 -158.75579834 703.13371277 C-158.67613358 702.0534444 -158.59646883 700.97317604 -158.51438999 699.86017227 C-158.091559 694.27482653 -157.59528079 688.70388812 -157.00579834 683.13371277 C-156.88124771 681.92838898 -156.88124771 681.92838898 -156.75418091 680.69871521 C-147.88792107 595.64962897 -123.10723407 515.81087168 -64.10345459 451.70011902 C-62.05255736 449.45812321 -60.05102301 447.18580248 -58.06829834 444.88371277 C-52.43416288 438.42025363 -46.26320973 432.70213527 -39.75579834 427.13371277 C-38.84314209 426.33191589 -37.93048584 425.53011902 -36.99017334 424.70402527 C-24.22315967 413.57122228 -10.6200368 404.00966704 3.99420166 395.44621277 C5.01812012 394.84575134 6.04203857 394.24528992 7.09698486 393.62663269 C11.7617338 390.94553352 16.08264756 388.72561595 21.24420166 387.13371277 C21.03215088 386.36704285 20.8201001 385.60037292 20.60162354 384.81047058 C19.64388774 381.33631029 18.69396347 377.86006103 17.74420166 374.38371277 C17.24340088 372.57386902 17.24340088 372.57386902 16.73248291 370.72746277 C16.25875244 368.98722839 16.25875244 368.98722839 15.77545166 367.21183777 C15.48218994 366.14352722 15.18892822 365.07521667 14.88677979 363.97453308 C14.24420166 361.13371277 14.24420166 361.13371277 14.24420166 357.13371277 C13.08356201 357.14156799 13.08356201 357.14156799 11.8994751 357.14958191 C-39.84226858 357.45236693 -86.74311898 352.30888796 -125.44329834 314.50871277 C-126.20642334 313.72496277 -126.96954834 312.94121277 -127.75579834 312.13371277 C-128.23919678 311.69543152 -128.72259521 311.25715027 -129.22064209 310.80558777 C-162.98065099 279.34920301 -173.99559737 227.3475965 -175.68109131 183.27433777 C-176.945666 147.03972712 -171.57116851 110.11192952 -153.75579834 78.13371277 C-153.4079126 77.49739929 -153.06002686 76.86108582 -152.70159912 76.20549011 C-147.3758211 66.54596687 -141.09659718 58.33877853 -133.75579834 50.13371277 C-133.0661499 49.31129089 -132.37650146 48.48886902 -131.66595459 47.64152527 C-126.62169571 41.67919065 -120.91305704 36.91347155 -114.75579834 32.13371277 C-113.84056396 31.39121277 -112.92532959 30.64871277 -111.98236084 29.88371277 C-79.73934066 4.44264479 -39.67222345 -0.0290453 0 0 Z " fill="#6835F5" transform="translate(176.75579833984375,0.8662872314453125)"/>
<path d="M0 0 C3.68420688 0.00515799 7.36839808 -0.00147924 11.05260261 -0.00648667 C17.48470617 -0.01365217 23.91677605 -0.01352697 30.34888109 -0.00839235 C39.9142007 -0.00077757 49.47949229 -0.00472051 59.04481176 -0.01080896 C76.13577066 -0.02130387 93.22671455 -0.02044229 110.31767485 -0.01465113 C125.27479548 -0.00960826 140.23191062 -0.00831209 155.18903192 -0.01069642 C156.1834552 -0.01084919 157.17787849 -0.01100196 158.20243581 -0.01115936 C162.2397235 -0.0117821 166.27701118 -0.01241891 170.31429886 -0.01307889 C208.14147567 -0.01918877 245.96864295 -0.01366287 283.79581828 -0.0028851 C317.35943549 0.00660521 350.92303752 0.00575591 384.4866546 -0.00380708 C422.24726516 -0.01453008 460.00786732 -0.01875536 497.76847919 -0.01258255 C501.79815928 -0.01194117 505.82783938 -0.01131549 509.85751947 -0.01069642 C511.34569547 -0.01045919 511.34569547 -0.01045919 512.86393564 -0.01021717 C527.80697949 -0.00794789 542.75001724 -0.01059218 557.69306024 -0.01565553 C574.69403958 -0.02138769 591.69500164 -0.01991539 608.69597884 -0.00909404 C618.19586419 -0.00324573 627.69571206 -0.00280282 637.1955964 -0.01038639 C643.55773832 -0.01490251 649.91985047 -0.01202402 656.28198801 -0.00337685 C659.8956646 0.00133659 663.50926727 0.00310125 667.12294128 -0.00418882 C721.87319187 -0.1062154 775.14253236 7.6765671 815.6482757 47.44443511 C850.90685661 83.03427425 863.31357377 131.4346184 864.2732757 180.31943511 C864.22484048 182.63292916 864.1359614 184.94567947 864.0232757 187.25693511 C863.96164239 188.54374175 863.96164239 188.54374175 863.89876398 189.85654448 C861.84913649 228.96317497 851.84962206 266.07614662 826.0232757 296.25693511 C825.33749445 297.0651773 824.6517132 297.87341948 823.9451507 298.70615386 C793.02882028 334.12648206 747.86456478 353.11804895 701.42830499 356.44272612 C639.92238061 360.12581305 582.3602757 350.3297853 532.97249445 311.88193511 C506.98699971 291.68897282 483.84599678 276.44441563 450.0232757 275.25693511 C448.13551029 278.85904915 446.26650408 282.47022066 444.41414484 286.09067534 C443.78182642 287.32017438 443.14449796 288.5471105 442.50203546 289.77133941 C441.5779121 291.53440357 440.67338793 293.30769684 439.76936945 295.08115386 C439.21950372 296.14422759 438.669638 297.20730132 438.10310968 298.30258941 C436.56909651 302.49953567 437.34564597 304.71437091 439.09554132 308.69785308 C439.53575616 309.53977202 439.97597101 310.38169097 440.4295257 311.24912261 C440.92130304 312.19336089 441.41308038 313.13759917 441.91976007 314.11045073 C442.44892023 315.10754058 442.97808038 316.10463042 443.5232757 317.13193511 C444.0679046 318.16769683 444.61253351 319.20345855 445.17366632 320.27060698 C448.14010089 325.86535138 451.19773198 331.36859484 454.5232757 336.75693511 C496.33659126 405.10231797 503.54058115 482.62260627 503.4154497 560.75711285 C503.40855588 567.14883221 503.41919013 573.54052879 503.42738947 579.93224334 C503.43985673 591.67902244 503.43892225 603.42574943 503.43065506 615.17253093 C503.42305965 626.01977069 503.42116085 636.86699341 503.42472299 647.71423529 C503.42506672 648.80032949 503.42506672 648.80032949 503.4254174 649.90836497 C503.42635163 652.84855825 503.42730685 655.78875152 503.42829669 658.72894477 C503.43743375 686.19754441 503.42921376 713.6661144 503.413006 741.13470944 C503.39874472 765.48983889 503.40007181 789.84492129 503.41438898 814.20005034 C503.43047342 841.65231094 503.43681395 869.10454553 503.42755219 896.55681019 C503.42659019 899.48525161 503.42565166 902.41369303 503.42472299 905.34213446 C503.42436714 906.423489 503.42436714 906.423489 503.42400411 907.52668909 C503.42060302 918.3750177 503.42456066 929.22332737 503.43216165 940.07165335 C503.44075837 952.40152815 503.43826582 964.73133946 503.42231942 977.0612088 C503.41445985 983.34407965 503.41130597 989.62685513 503.42126688 995.90972518 C503.43026056 1001.66962378 503.42520454 1007.42933933 503.40933422 1013.18922153 C503.40600647 1015.26311746 503.40763477 1017.33702913 503.41496158 1019.41091479 C503.54806863 1060.24531322 489.49816914 1094.74809139 461.0232757 1124.25693511 C460.49266534 1124.81308501 459.96205499 1125.36923491 459.41536554 1125.94223784 C455.1974121 1130.27692431 450.72204345 1134.05225801 445.8982757 1137.69443511 C445.14965265 1138.26009185 444.4010296 1138.82574859 443.62972101 1139.40854644 C401.84897719 1170.61917256 350.28084224 1179.1418967 299.3982757 1171.88242339 C265.15981053 1166.62819464 233.48941112 1151.80170225 208.0232757 1128.25693511 C207.48364191 1127.76112944 206.94400812 1127.26532378 206.38802179 1126.7544937 C180.32676387 1102.52692147 163.24764355 1068.04265636 161.74852332 1032.23873495 C161.60409981 1026.68667957 161.62248835 1021.13578868 161.64232477 1015.58234404 C161.63886061 1013.44629334 161.634091 1011.31024444 161.62814303 1009.17419921 C161.6157053 1003.35182265 161.62177055 997.52959501 161.63110169 991.70721816 C161.63792257 985.40813221 161.62739533 979.10907089 161.61916193 972.80998992 C161.6066178 961.19388256 161.60767077 949.57783498 161.61589633 937.96172618 C161.62346817 927.21443246 161.62540154 916.46715591 161.6218284 905.71986007 C161.62148467 904.64699351 161.62148467 904.64699351 161.62113399 903.55245289 C161.6201998 900.64818657 161.61924459 897.74392025 161.6182547 894.83965395 C161.60908732 867.6171965 161.61737886 840.39476881 161.63354539 813.17231595 C161.64774741 789.07518079 161.64653552 764.97809326 161.63216241 740.88095855 C161.61602679 713.73882445 161.60977115 686.59671674 161.61899921 659.45457851 C161.61996114 656.54903801 161.62089968 653.6434975 161.6218284 650.73795699 C161.62218425 649.66502578 161.62218425 649.66502578 161.62254728 648.57041919 C161.62593362 637.8546183 161.62201739 627.13883668 161.61438974 616.42303847 C161.60573136 604.19909969 161.60840601 591.97522485 161.62423197 579.75129143 C161.63202186 573.53266051 161.63536922 567.31412504 161.62528452 561.09549521 C161.50790421 482.04916735 168.78597347 400.87210986 213.58186945 333.07724761 C216.72289076 328.24470366 219.58887722 323.25247493 222.4607757 318.25693511 C222.98139581 317.35990874 223.50201593 316.46288237 224.03841241 315.53867339 C224.52712823 314.68257476 225.01584406 313.82647612 225.51936945 312.94443511 C225.95434747 312.1851773 226.3893255 311.42591948 226.83748468 310.64365386 C228.25455595 307.79142228 229.36805723 305.39165759 230.0232757 302.25693511 C228.93520727 298.97821546 228.93520727 298.97821546 226.9373382 295.76474761 C226.60156763 295.17394408 226.26579706 294.58314055 225.91985162 293.97443389 C224.84805093 292.09872831 223.74897125 290.24080208 222.6482757 288.38193511 C221.91464217 287.10956981 221.18284934 285.83614128 220.4529632 284.56162261 C218.66422333 281.44746092 216.85066528 278.34861225 215.0232757 275.25693511 C179.43668619 276.36296742 154.50769435 293.8848125 127.48177179 315.69297026 C120.07187538 321.66281822 112.36330307 326.67801303 104.0232757 331.25693511 C103.4025921 331.59821441 102.78190851 331.9394937 102.14241632 332.2911148 C70.23284818 349.56857527 35.67617972 355.76554192 -0.2892243 356.88193511 C-0.99092749 356.90372832 -1.69263068 356.92552153 -2.4155976 356.94797515 C-56.78930106 358.5609211 -108.92762402 346.24793831 -149.6617829 308.42905425 C-179.18974162 280.43482455 -196.11110957 240.48330404 -198.09145514 199.90610503 C-198.15638132 197.43162355 -198.19299417 194.95873301 -198.21500555 192.48349761 C-198.22479941 191.57019179 -198.23459326 190.65688598 -198.2446839 189.71590422 C-198.41598544 169.59218411 -198.36993461 149.9996344 -193.9767243 130.25693511 C-193.76241766 129.28868804 -193.54811102 128.32044097 -193.32731024 127.32285308 C-186.52231917 97.77017352 -172.83948493 71.29743222 -151.9767243 49.25693511 C-151.09500555 48.29916167 -150.2132868 47.34138823 -149.3048493 46.35459136 C-141.71813292 38.29590533 -133.28888867 32.18597352 -123.9767243 26.25693511 C-122.99188055 25.60982573 -122.0070368 24.96271636 -120.9923493 24.29599761 C-85.37217075 2.0585415 -40.67801796 -0.08206203 0 0 Z " fill="#6835F4" transform="translate(1134.9767243042588,0.7430648915469646)"/>
</svg>
